<?xml version="1.0" encoding="utf-8"?>
<svg id="Layer_1" x="0px" y="0px" width="72.96px" height="10.8px" viewBox="0 0 72.96 10.8" xmlns="http://www.w3.org/2000/svg">
  <path fill="#3790CC" d="M16.089,6.67c0.29,0,0.535,0.08,0.735,0.242s0.3,0.36,0.3,0.594c0,0.224-0.1,0.418-0.3,0.586&#10;&#9;c-0.2,0.167-0.445,0.245-0.735,0.234H0.147v2.484h15.942c1.146,0,2.123-0.321,2.93-0.966c0.808-0.646,1.211-1.419,1.211-2.322&#10;&#9;c0-0.914-0.404-1.696-1.211-2.346c-0.807-0.65-1.784-0.975-2.93-0.975c-0.152,0-0.58,0-1.284,0s-1.463,0-2.278,0&#10;&#9;c-0.897,0-2.099,0-3.603,0c-0.262,0-0.5-0.083-0.714-0.249c-0.214-0.166-0.321-0.359-0.321-0.58c0-0.232,0.104-0.428,0.311-0.588&#10;&#9;s0.448-0.246,0.725-0.257h7.248V0.026L8.924,0.043c-1.132,0-2.105,0.323-2.919,0.969C5.189,1.658,4.783,2.439,4.783,3.356&#10;&#9;c0,0.905,0.407,1.684,1.222,2.335C6.818,6.344,7.792,6.67,8.924,6.67c0.4,0,0.863,0,1.388,0c0.524,0,1.062,0,1.615,0&#10;&#9;C12.976,6.67,14.363,6.67,16.089,6.67L16.089,6.67L16.089,6.67L16.089,6.67z"/>
  <path fill="#3790CC" d="M22.363,2.528v8.283h3.106V2.528h9.318V0.043H17.207v2.485H22.363L22.363,2.528z"/>
  <path fill="#3790CC" d="M32.737,7.497V6.67h6.73V4.185h-6.73V3.373c0-0.232,0.104-0.428,0.311-0.588s0.448-0.246,0.725-0.257h6.088&#10;&#9;V0.026l-6.088,0.017c-1.132,0-2.105,0.324-2.92,0.971s-1.222,1.43-1.222,2.348c0,0.077,0,0.321,0,0.73c0,0.41,0,0.852,0,1.327&#10;&#9;c0,0.52,0,1.217,0,2.09c0,0.907,0.407,1.685,1.222,2.331c0.814,0.647,1.788,0.971,2.92,0.971h6.212V8.342h-6.212&#10;&#9;c-0.055,0-0.111-0.005-0.166-0.016c-0.056-0.011-0.111-0.027-0.166-0.05C33.262,8.21,33.1,8.108,32.955,7.97&#10;&#9;C32.81,7.832,32.737,7.674,32.737,7.497L32.737,7.497L32.737,7.497z"/>
  <path fill="#3790CC" d="M49.303,6.67v4.141h3.106V0.043h-3.106v4.142h-5.177V0.043H41.02v10.768h3.106V6.67H49.303L49.303,6.67z"/>
  <path fill="#3790CC" d="M56.551,10.811V0.043h-3.106v10.768H56.551L56.551,10.811z"/>
  <path fill="#3790CC" d="M72.739,10.811V8.342H61.728c-0.276,0-0.518-0.082-0.726-0.248c-0.207-0.165-0.31-0.364-0.31-0.597V0.043&#10;&#9;h-3.107v7.472c0,0.905,0.408,1.682,1.222,2.327c0.815,0.646,1.788,0.969,2.921,0.969H72.739L72.739,10.811z"/>
</svg>